<svg width="327" height="327" viewBox="0 0 327 327" fill="none" xmlns="http://www.w3.org/2000/svg">
<g clip-path="url(#clip0_181_5)">
<mask id="mask0_181_5" style="mask-type:alpha" maskUnits="userSpaceOnUse" x="0" y="0" width="327" height="327">
<circle cx="163.5" cy="163.5" r="163.5" fill="#D9D9D9"/>
</mask>
<g mask="url(#mask0_181_5)">
<circle cx="163.5" cy="163.5" r="163.5" fill="#E8E8E8"/>
<path fill-rule="evenodd" clip-rule="evenodd" d="M97.0278 101.222C97.0278 83.659 104.005 66.8151 116.424 54.396C128.843 41.977 145.687 35 163.25 35C180.813 35 197.657 41.977 210.076 54.396C222.495 66.8151 229.472 83.659 229.472 101.222C229.472 118.785 222.495 135.629 210.076 148.048C197.657 160.467 180.813 167.444 163.25 167.444C145.687 167.444 128.843 160.467 116.424 148.048C104.005 135.629 97.0278 118.785 97.0278 101.222ZM97.0278 200.556C75.0737 200.556 54.0189 209.277 38.4951 224.801C22.9712 240.324 14.25 261.379 14.25 283.333C14.25 296.506 19.4827 309.139 28.797 318.453C38.1113 327.767 50.7442 333 63.9167 333H262.583C275.756 333 288.389 327.767 297.703 318.453C307.017 309.139 312.25 296.506 312.25 283.333C312.25 261.379 303.529 240.324 288.005 224.801C272.481 209.277 251.426 200.556 229.472 200.556H97.0278Z" fill="#B4B4B4"/>
</g>
</g>
<defs>
<clipPath id="clip0_181_5">
<rect width="327" height="327" fill="white"/>
</clipPath>
</defs>
</svg>
